Coordinates
version=1
nRows=10
nColumns=34
inDegrees=yes

Units are S.I. units (second, meters, Newtons, ...)
If the header above contains a line with 'inDegrees', this indicates whether rotational values are in degrees (yes) or radians (no).

endheader
time	pelvis_tilt	pelvis_list	pelvis_rotation	pelvis_tx	pelvis_ty	pelvis_tz	hip_flexion_r	hip_adduction_r	hip_rotation_r	knee_angle_r	ankle_angle_r	subtalar_angle_r	mtp_angle_r	hip_flexion_l	hip_adduction_l	hip_rotation_l	knee_angle_l	ankle_angle_l	subtalar_angle_l	mtp_angle_l	lumbar_extension	lumbar_bending	lumbar_rotation	arm_flex_r	arm_add_r	arm_rot_r	elbow_flex_r	pro_sup_r	arm_flex_l	arm_add_l	arm_rot_l	elbow_flex_l	pro_sup_l
      3.46666670	     -3.52564229	      0.46002307	     -0.82026074	      0.29662914	      0.93686298	     -0.02348485	      1.90268397	     -3.25874915	     -2.30121760	      0.41713161	      9.16051870	     -4.51753898	      0.00000000	      2.30823004	     -4.35960719	     -2.44958753	      0.67954326	      2.11749828	     -8.94342521	      0.00000000	      9.01231018	      0.85867782	      5.58561249	     58.60271956	      7.44084383	     62.65413771	    117.71674589	     98.93280126	     52.19500648	     13.74736192	     70.78328185	    124.76425439	     78.39851705
      3.48333330	     -3.59760539	      0.40823384	     -0.82317559	      0.29732463	      0.93720318	     -0.02331967	      1.94824518	     -3.17948965	     -2.42551053	      0.33096600	      9.06422434	     -4.55874238	      0.00000000	      2.31495351	     -4.42703955	     -2.49893227	      0.57466501	      2.09964021	     -8.97640420	      0.00000000	      8.96209711	      0.73554517	      5.63263817	     58.61619254	      7.33305809	     62.62273655	    117.58907193	     98.93113555	     52.22026265	     13.72880316	     70.85145917	    124.84406313	     78.38874411
      3.50000000	     -3.61729714	      0.38537533	     -0.71742667	      0.29839237	      0.93826916	     -0.02355017	      1.88487573	     -3.16049816	     -2.73921263	      0.22301294	      8.61531865	     -4.60999870	      0.00000000	      2.26866109	     -4.44183617	     -2.66851685	      0.51408873	      1.87975996	     -9.04882648	      0.00000000	      8.99968645	      0.75442324	      5.62797764	     58.48560581	      6.86927758	     62.45253257	    117.05016548	     98.92315993	     52.45723834	     13.40185033	     71.06989299	    124.89100001	     78.34164687
      3.51666670	     -3.68307737	      0.36323391	     -0.67234907	      0.29918363	      0.93703562	     -0.02351583	      1.90204479	     -3.13205783	     -2.76841475	      0.15846269	      8.58870619	     -4.62133680	      0.00000000	      2.27848611	     -4.46136889	     -2.66197282	      0.45571679	      1.87427342	     -9.05610285	      0.00000000	      8.91949669	      0.71981223	      5.66179228	     58.46468841	      6.91167099	     62.43436630	    116.99658847	     98.92177997	     52.47092912	     13.35757171	     71.08317427	    124.86857649	     78.33212389
      3.53333330	     -3.75508846	      0.35151974	     -0.62904240	      0.29790192	      0.93833435	     -0.02369772	      1.94781298	     -3.11230428	     -2.80935127	      0.06563267	      8.55431579	     -4.63253632	      0.00000000	      2.31542817	     -4.45902706	     -2.66518038	      0.37598545	      1.86344585	     -9.06115549	      0.00000000	      8.80329504	      0.73134345	      5.66663748	     58.46439546	      6.90800052	     62.40243640	    116.94809380	     98.92017447	     52.51152659	     13.28640504	     71.07482036	    124.81056494	     78.32224638
      3.55000000	     -3.75237831	      0.34627014	     -0.62664696	      0.29855470	      0.93751090	     -0.02343011	      1.93353074	     -3.10410219	     -2.81276819	      0.06980584	      8.54972997	     -4.63279940	      0.00000000	      2.33103605	     -4.45367435	     -2.66293566	      0.36482994	      1.86210178	     -9.06019644	      0.00000000	      8.80119586	      0.72910805	      5.66743226	     58.47003980	      6.91047257	     62.39779155	    116.94232836	     98.91999030	     52.51377777	     13.28930054	     71.07505526	    124.80868268	     78.32139963
      3.56666670	     -3.74636243	      0.27539703	     -0.59385786	      0.29893853	      0.93676065	     -0.02332776	      1.86912780	     -3.00548874	     -2.86260580	      0.00508226	      8.50622742	     -4.63550526	      0.00000000	      2.26891713	     -4.53619887	     -2.51064043	      0.16345784	      1.86087518	     -8.99454869	      0.00000000	      8.88085925	      0.63296942	      5.60151602	     58.66945946	      7.04027271	     62.23475458	    116.79611449	     98.91311129	     52.52751390	     13.50440084	     71.09191103	    124.79230215	     78.29867005
      3.58333330	     -3.69326001	      0.29196777	     -0.48787282	      0.30118135	      0.93683552	     -0.02370221	      1.73471054	     -3.03676014	     -2.90960041	      0.00021079	      8.53861047	     -4.65586460	      0.00000000	      2.21562279	     -4.49469583	     -2.29988394	      0.23674954	      1.86613179	     -8.90649226	      0.00000000	      8.76714566	      0.87628565	      5.50147023	     58.61500531	      7.41235887	     62.14428210	    117.07617291	     98.91043370	     52.67373854	     12.87852067	     70.82857951	    124.24763937	     78.24059756
      3.60000000	     -3.63346883	      0.25265280	     -0.56185314	      0.30147173	      0.93629688	     -0.02262198	      1.59891539	     -2.97398396	     -2.89836406	      0.06726171	      8.54669631	     -4.64200344	      0.00000000	      2.10983496	     -4.56152097	     -2.28427896	      0.23390239	      1.90906519	     -8.91165802	      0.00000000	      8.95416098	      0.75634920	      5.39783334	     58.64787707	      7.57889985	     62.15957944	    117.16039437	     98.91278722	     52.68166892	     12.93700303	     70.75063033	    124.19069008	     78.22723576
      3.61666670	     -3.38874163	      0.20750198	     -0.63043288	      0.30104777	      0.93808041	     -0.02339930	      1.22178474	     -2.92148293	     -2.78616992	      0.00000000	      8.62250945	     -4.48114178	      0.00000000	      1.70288254	     -4.61168962	     -2.42621796	      0.10057998	      1.91644122	     -8.85947086	      0.00000000	      8.79195068	      0.56762861	      4.32234674	     58.50280235	      8.52002328	     62.41464184	    118.10009432	     98.94930195	     52.27057774	     12.36472928	     69.70965879	    123.10602984	     78.04516874
